# xmcd
#
# Track frame offsets:
#	150
#	13960
#	29341
#	42569
#	52887
#	69471
#	82253
#	94220
#	106265
#	117379
#	133342
#	150682
#	162901
#
# Disc length: 2390 seconds
#
# Revision: 1
# Processed by: cddbd v1.5.1PL0 Copyright (c) Steve Scherf et al.
# Submitted via: EasyCDDAExtractor 7.0.5.1
#
DISCID=b509540d
DTITLE=Køeni - Leaving Home
DYEAR=2005
DGENRE=Country
TTITLE0=Yesterday Was a Strange Day
TTITLE1=Your Love´s Gone Away
TTITLE2=Water in My Shoes
TTITLE3=Dust on My Heart
TTITLE4=Holiday Session
TTITLE5=Toulky tmou
TTITLE6=How Can You Live without Love
TTITLE7=Cesta za tebou
TTITLE8=Rusty Chain
TTITLE9=Leaving Home
TTITLE10=The Only Thing I Miss
TTITLE11=Troubles on My Mind
TTITLE12=Home in Alabama
EXTD=
EXTT0=
EXTT1=
EXTT2=
EXTT3=
EXTT4=
EXTT5=
EXTT6=
EXTT7=
EXTT8=
EXTT9=
EXTT10=
EXTT11=
EXTT12=
PLAYORDER=
